<svg width="22" height="22" viewBox="0 0 22 22" fill="none" xmlns="http://www.w3.org/2000/svg">
<path fill-rule="evenodd" clip-rule="evenodd" d="M13.6136 10.9991L21.4567 3.15591C22.1787 2.43393 22.1787 1.26339 21.4567 0.541521C20.7347 -0.180451 19.5643 -0.180451 18.8423 0.541521L10.9991 8.38478L3.15582 0.541418C2.43385 -0.180554 1.2634 -0.180554 0.541432 0.541418C-0.180437 1.26339 -0.180437 2.43393 0.541432 3.1558L8.38469 10.999L0.541432 18.8422C-0.180437 19.5642 -0.180437 20.7347 0.541432 21.4566C1.2634 22.1786 2.43385 22.1786 3.15582 21.4566L10.9991 13.6133L18.8423 21.4566C19.5642 22.1786 20.7347 22.1786 21.4567 21.4566C22.1787 20.7346 22.1787 19.5642 21.4567 18.8422L13.6136 10.9991Z" fill="white"/>
</svg>
